<mxfile host="Electron" modified="2024-08-12T22:47:36.886Z" agent="Mozilla/5.0 (Windows NT 10.0; Win64; x64) AppleWebKit/537.36 (KHTML, like Gecko) draw.io/24.5.1 Chrome/124.0.6367.207 Electron/30.0.6 Safari/537.36" etag="kguGSvOkgUkJvMqJ_1v7" version="24.5.1" type="device">
  <diagram name="Page-1" id="GaY7u0Aua6wlqC8UAFMl">
    <mxGraphModel dx="1099" dy="815" grid="1" gridSize="10" guides="1" tooltips="1" connect="1" arrows="1" fold="1" page="1" pageScale="1" pageWidth="850" pageHeight="1100" math="0" shadow="0">
      <root>
        <mxCell id="0" />
        <mxCell id="1" parent="0" />
        <mxCell id="1A9r6Xzu8k346NUwMjK1-44" value="" style="rounded=0;whiteSpace=wrap;html=1;" vertex="1" parent="1">
          <mxGeometry x="60" y="360" width="190" height="150" as="geometry" />
        </mxCell>
        <mxCell id="1A9r6Xzu8k346NUwMjK1-43" value="" style="rounded=0;whiteSpace=wrap;html=1;" vertex="1" parent="1">
          <mxGeometry x="315" y="370" width="220" height="130" as="geometry" />
        </mxCell>
        <mxCell id="1A9r6Xzu8k346NUwMjK1-31" style="edgeStyle=orthogonalEdgeStyle;rounded=0;orthogonalLoop=1;jettySize=auto;html=1;entryX=0.5;entryY=0;entryDx=0;entryDy=0;exitX=0.5;exitY=1;exitDx=0;exitDy=0;" edge="1" parent="1" source="1A9r6Xzu8k346NUwMjK1-44" target="1A9r6Xzu8k346NUwMjK1-30">
          <mxGeometry relative="1" as="geometry">
            <mxPoint x="155" y="540" as="sourcePoint" />
          </mxGeometry>
        </mxCell>
        <mxCell id="1A9r6Xzu8k346NUwMjK1-3" value="" style="rounded=0;whiteSpace=wrap;html=1;" vertex="1" parent="1">
          <mxGeometry x="30" y="51" width="430" height="200" as="geometry" />
        </mxCell>
        <mxCell id="1A9r6Xzu8k346NUwMjK1-4" value="&lt;font style=&quot;font-size: 16px;&quot; face=&quot;Times New Roman&quot;&gt;&lt;b&gt;Client [ Front End ]&lt;/b&gt;&lt;/font&gt;" style="text;html=1;align=center;verticalAlign=middle;whiteSpace=wrap;rounded=0;" vertex="1" parent="1">
          <mxGeometry x="170" y="50" width="150" height="30" as="geometry" />
        </mxCell>
        <mxCell id="1A9r6Xzu8k346NUwMjK1-10" value="" style="edgeStyle=orthogonalEdgeStyle;rounded=0;orthogonalLoop=1;jettySize=auto;html=1;" edge="1" parent="1" source="1A9r6Xzu8k346NUwMjK1-6" target="1A9r6Xzu8k346NUwMjK1-9">
          <mxGeometry relative="1" as="geometry" />
        </mxCell>
        <mxCell id="1A9r6Xzu8k346NUwMjK1-14" style="edgeStyle=orthogonalEdgeStyle;rounded=0;orthogonalLoop=1;jettySize=auto;html=1;entryX=0;entryY=0.5;entryDx=0;entryDy=0;" edge="1" parent="1" source="1A9r6Xzu8k346NUwMjK1-6" target="1A9r6Xzu8k346NUwMjK1-7">
          <mxGeometry relative="1" as="geometry" />
        </mxCell>
        <mxCell id="1A9r6Xzu8k346NUwMjK1-6" value="" style="ellipse;whiteSpace=wrap;html=1;aspect=fixed;labelBackgroundColor=none;fillColor=#fff2cc;strokeColor=#d6b656;" vertex="1" parent="1">
          <mxGeometry x="230" y="80" width="30" height="30" as="geometry" />
        </mxCell>
        <mxCell id="1A9r6Xzu8k346NUwMjK1-7" value="INSTRUCTOR" style="rounded=1;whiteSpace=wrap;html=1;" vertex="1" parent="1">
          <mxGeometry x="320" y="65" width="120" height="60" as="geometry" />
        </mxCell>
        <mxCell id="1A9r6Xzu8k346NUwMjK1-8" value="ADMINISTRATOR" style="rounded=1;whiteSpace=wrap;html=1;" vertex="1" parent="1">
          <mxGeometry x="50" y="65" width="120" height="60" as="geometry" />
        </mxCell>
        <mxCell id="1A9r6Xzu8k346NUwMjK1-9" value="STUDENTS" style="rounded=1;whiteSpace=wrap;html=1;" vertex="1" parent="1">
          <mxGeometry x="185" y="170" width="120" height="60" as="geometry" />
        </mxCell>
        <mxCell id="1A9r6Xzu8k346NUwMjK1-15" value="" style="endArrow=classic;html=1;rounded=0;entryX=0;entryY=0.5;entryDx=0;entryDy=0;exitX=1;exitY=0.5;exitDx=0;exitDy=0;" edge="1" parent="1" source="1A9r6Xzu8k346NUwMjK1-8" target="1A9r6Xzu8k346NUwMjK1-6">
          <mxGeometry width="50" height="50" relative="1" as="geometry">
            <mxPoint x="323" y="150" as="sourcePoint" />
            <mxPoint x="373" y="100" as="targetPoint" />
          </mxGeometry>
        </mxCell>
        <mxCell id="1A9r6Xzu8k346NUwMjK1-23" value="" style="endArrow=classic;startArrow=classic;html=1;rounded=0;exitX=0.541;exitY=0.007;exitDx=0;exitDy=0;exitPerimeter=0;entryX=0.308;entryY=1.007;entryDx=0;entryDy=0;entryPerimeter=0;" edge="1" parent="1" target="1A9r6Xzu8k346NUwMjK1-3">
          <mxGeometry width="50" height="50" relative="1" as="geometry">
            <mxPoint x="162.3800000000001" y="361.26" as="sourcePoint" />
            <mxPoint x="252" y="252" as="targetPoint" />
          </mxGeometry>
        </mxCell>
        <mxCell id="1A9r6Xzu8k346NUwMjK1-30" value="&lt;font size=&quot;1&quot; face=&quot;Times New Roman&quot;&gt;&lt;b style=&quot;font-size: 14px;&quot;&gt;DATABASE&lt;/b&gt;&lt;/font&gt;" style="shape=datastore;whiteSpace=wrap;html=1;" vertex="1" parent="1">
          <mxGeometry x="97.5" y="590" width="115" height="160" as="geometry" />
        </mxCell>
        <mxCell id="1A9r6Xzu8k346NUwMjK1-32" value="{ EXPRESS WEB FRRAMEWORK}&lt;div&gt;&lt;br&gt;&lt;/div&gt;&lt;div&gt;NODE.JS RUNTIME&lt;/div&gt;" style="rounded=1;whiteSpace=wrap;html=1;fillColor=#f8cecc;strokeColor=#b85450;" vertex="1" parent="1">
          <mxGeometry x="80" y="420" width="150" height="60" as="geometry" />
        </mxCell>
        <mxCell id="1A9r6Xzu8k346NUwMjK1-34" value="&lt;b&gt;&lt;font style=&quot;font-size: 14px;&quot; face=&quot;Times New Roman&quot;&gt;Main App. Server&lt;/font&gt;&lt;/b&gt;" style="text;html=1;align=center;verticalAlign=middle;resizable=0;points=[];autosize=1;strokeColor=none;fillColor=none;" vertex="1" parent="1">
          <mxGeometry x="90" y="360" width="130" height="30" as="geometry" />
        </mxCell>
        <mxCell id="1A9r6Xzu8k346NUwMjK1-36" value="&lt;b&gt;XIRSYS&lt;/b&gt;&lt;div&gt;STUN / TURN&amp;nbsp;&lt;div&gt;SERVERS&lt;/div&gt;&lt;/div&gt;" style="rounded=0;whiteSpace=wrap;html=1;" vertex="1" parent="1">
          <mxGeometry x="570" y="125" width="120" height="60" as="geometry" />
        </mxCell>
        <mxCell id="1A9r6Xzu8k346NUwMjK1-37" value="" style="endArrow=classic;startArrow=classic;html=1;rounded=0;" edge="1" parent="1">
          <mxGeometry width="50" height="50" relative="1" as="geometry">
            <mxPoint x="460" y="160" as="sourcePoint" />
            <mxPoint x="570" y="160" as="targetPoint" />
          </mxGeometry>
        </mxCell>
        <mxCell id="1A9r6Xzu8k346NUwMjK1-38" value="WebRTC" style="text;html=1;align=center;verticalAlign=middle;resizable=0;points=[];autosize=1;strokeColor=none;fillColor=none;" vertex="1" parent="1">
          <mxGeometry x="485" y="136" width="70" height="30" as="geometry" />
        </mxCell>
        <mxCell id="1A9r6Xzu8k346NUwMjK1-40" value="{ EXPRESS WEB FRRAMEWORK}&lt;div&gt;&lt;br&gt;&lt;/div&gt;&lt;div&gt;NODE.JS RUNTIME&lt;/div&gt;" style="rounded=1;whiteSpace=wrap;html=1;fillColor=#f8cecc;strokeColor=#b85450;" vertex="1" parent="1">
          <mxGeometry x="350" y="420" width="150" height="60" as="geometry" />
        </mxCell>
        <mxCell id="1A9r6Xzu8k346NUwMjK1-41" value="&lt;b&gt;&lt;font style=&quot;font-size: 14px;&quot; face=&quot;Times New Roman&quot;&gt;Signaling Server&lt;/font&gt;&lt;/b&gt;" style="text;html=1;align=center;verticalAlign=middle;resizable=0;points=[];autosize=1;strokeColor=none;fillColor=none;" vertex="1" parent="1">
          <mxGeometry x="365" y="370" width="120" height="30" as="geometry" />
        </mxCell>
        <mxCell id="1A9r6Xzu8k346NUwMjK1-42" value="" style="endArrow=classic;startArrow=classic;html=1;rounded=0;exitX=0.541;exitY=0.007;exitDx=0;exitDy=0;exitPerimeter=0;entryX=0.909;entryY=0.997;entryDx=0;entryDy=0;entryPerimeter=0;" edge="1" parent="1" target="1A9r6Xzu8k346NUwMjK1-3">
          <mxGeometry width="50" height="50" relative="1" as="geometry">
            <mxPoint x="420" y="370" as="sourcePoint" />
            <mxPoint x="420" y="261" as="targetPoint" />
          </mxGeometry>
        </mxCell>
        <mxCell id="1A9r6Xzu8k346NUwMjK1-45" style="edgeStyle=orthogonalEdgeStyle;rounded=0;orthogonalLoop=1;jettySize=auto;html=1;entryX=-0.004;entryY=0.322;entryDx=0;entryDy=0;entryPerimeter=0;" edge="1" parent="1" source="1A9r6Xzu8k346NUwMjK1-44" target="1A9r6Xzu8k346NUwMjK1-43">
          <mxGeometry relative="1" as="geometry" />
        </mxCell>
        <mxCell id="1A9r6Xzu8k346NUwMjK1-46" style="edgeStyle=orthogonalEdgeStyle;rounded=0;orthogonalLoop=1;jettySize=auto;html=1;entryX=1.002;entryY=0.708;entryDx=0;entryDy=0;entryPerimeter=0;" edge="1" parent="1" source="1A9r6Xzu8k346NUwMjK1-43" target="1A9r6Xzu8k346NUwMjK1-44">
          <mxGeometry relative="1" as="geometry">
            <Array as="points">
              <mxPoint x="310" y="450" />
              <mxPoint x="310" y="466" />
            </Array>
          </mxGeometry>
        </mxCell>
      </root>
    </mxGraphModel>
  </diagram>
</mxfile>
